<svg id="visual" viewBox="0 0 900 600" width="900" height="600" xmlns="http://www.w3.org/2000/svg" xmlns:xlink="http://www.w3.org/1999/xlink" version="1.1"><g stroke-width="1" stroke-linejoin="bevel"><path d="M516 267L591 262L494 211Z" fill="#193f6d" stroke="#193f6d"></path><path d="M591 262L622 169L494 211Z" fill="#123860" stroke="#123860"></path><path d="M622 169L601 137L494 211Z" fill="#123860" stroke="#123860"></path><path d="M601 137L486 89L494 211Z" fill="#071d2e" stroke="#071d2e"></path><path d="M516 267L609 363L591 262Z" fill="#092a46" stroke="#092a46"></path><path d="M721 203L692 128L622 169Z" fill="#2a4d88" stroke="#2a4d88"></path><path d="M419 85L389 234L494 211Z" fill="#0d3153" stroke="#0d3153"></path><path d="M494 211L389 234L516 267Z" fill="#061622" stroke="#061622"></path><path d="M516 267L514 422L609 363Z" fill="#000d17" stroke="#000d17"></path><path d="M622 169L692 128L601 137Z" fill="#000d17" stroke="#000d17"></path><path d="M601 137L571 0L486 89Z" fill="#092a46" stroke="#092a46"></path><path d="M721 203L622 169L591 262Z" fill="#061622" stroke="#061622"></path><path d="M703 330L721 203L591 262Z" fill="#0d3153" stroke="#0d3153"></path><path d="M609 363L703 330L591 262Z" fill="#0d3153" stroke="#0d3153"></path><path d="M486 89L419 85L494 211Z" fill="#0d3153" stroke="#0d3153"></path><path d="M312 298L374 307L389 234Z" fill="#21467a" stroke="#21467a"></path><path d="M389 234L374 307L516 267Z" fill="#061622" stroke="#061622"></path><path d="M428 400L514 422L516 267Z" fill="#123860" stroke="#123860"></path><path d="M609 363L665 398L703 330Z" fill="#345495" stroke="#345495"></path><path d="M577 476L665 398L609 363Z" fill="#0d3153" stroke="#0d3153"></path><path d="M374 307L428 400L516 267Z" fill="#092a46" stroke="#092a46"></path><path d="M692 128L571 0L601 137Z" fill="#000d17" stroke="#000d17"></path><path d="M486 89L517 0L419 85Z" fill="#092a46" stroke="#092a46"></path><path d="M571 0L517 0L486 89Z" fill="#0d3153" stroke="#0d3153"></path><path d="M830 399L769 302L703 330Z" fill="#2a4d88" stroke="#2a4d88"></path><path d="M703 330L769 302L721 203Z" fill="#08233a" stroke="#08233a"></path><path d="M721 203L786 181L692 128Z" fill="#21467a" stroke="#21467a"></path><path d="M419 85L313 198L389 234Z" fill="#0d3153" stroke="#0d3153"></path><path d="M769 302L786 181L721 203Z" fill="#21467a" stroke="#21467a"></path><path d="M692 128L729 0L571 0Z" fill="#08233a" stroke="#08233a"></path><path d="M313 198L312 298L389 234Z" fill="#092a46" stroke="#092a46"></path><path d="M374 307L304 435L428 400Z" fill="#21467a" stroke="#21467a"></path><path d="M473 471L577 476L514 422Z" fill="#2a4d88" stroke="#2a4d88"></path><path d="M514 422L577 476L609 363Z" fill="#123860" stroke="#123860"></path><path d="M392 476L473 471L428 400Z" fill="#071d2e" stroke="#071d2e"></path><path d="M428 400L473 471L514 422Z" fill="#21467a" stroke="#21467a"></path><path d="M517 0L390 0L419 85Z" fill="#21467a" stroke="#21467a"></path><path d="M419 85L276 85L313 198Z" fill="#000d17" stroke="#000d17"></path><path d="M799 66L729 0L692 128Z" fill="#193f6d" stroke="#193f6d"></path><path d="M786 181L799 66L692 128Z" fill="#123860" stroke="#123860"></path><path d="M304 435L392 476L428 400Z" fill="#092a46" stroke="#092a46"></path><path d="M514 600L575 600L577 476Z" fill="#123860" stroke="#123860"></path><path d="M326 0L276 85L419 85Z" fill="#08233a" stroke="#08233a"></path><path d="M313 198L198 307L312 298Z" fill="#061622" stroke="#061622"></path><path d="M799 66L769 0L729 0Z" fill="#345495" stroke="#345495"></path><path d="M390 0L326 0L419 85Z" fill="#21467a" stroke="#21467a"></path><path d="M665 398L830 399L703 330Z" fill="#071d2e" stroke="#071d2e"></path><path d="M577 476L727 489L665 398Z" fill="#193f6d" stroke="#193f6d"></path><path d="M763 497L727 489L789 600Z" fill="#061622" stroke="#061622"></path><path d="M312 298L304 435L374 307Z" fill="#2a4d88" stroke="#2a4d88"></path><path d="M198 307L304 435L312 298Z" fill="#0d3153" stroke="#0d3153"></path><path d="M727 489L830 399L665 398Z" fill="#2a4d88" stroke="#2a4d88"></path><path d="M900 296L900 181L786 181Z" fill="#2a4d88" stroke="#2a4d88"></path><path d="M786 181L900 181L799 66Z" fill="#000d17" stroke="#000d17"></path><path d="M662 600L727 489L577 476Z" fill="#345495" stroke="#345495"></path><path d="M727 489L763 497L830 399Z" fill="#08233a" stroke="#08233a"></path><path d="M304 435L307 470L392 476Z" fill="#123860" stroke="#123860"></path><path d="M900 296L786 181L769 302Z" fill="#08233a" stroke="#08233a"></path><path d="M799 66L900 0L769 0Z" fill="#071d2e" stroke="#071d2e"></path><path d="M225 0L230 64L276 85Z" fill="#071d2e" stroke="#071d2e"></path><path d="M276 85L175 190L313 198Z" fill="#061622" stroke="#061622"></path><path d="M304 435L207 535L307 470Z" fill="#2a4d88" stroke="#2a4d88"></path><path d="M830 399L900 296L769 302Z" fill="#071d2e" stroke="#071d2e"></path><path d="M175 190L198 307L313 198Z" fill="#092a46" stroke="#092a46"></path><path d="M230 64L175 190L276 85Z" fill="#071d2e" stroke="#071d2e"></path><path d="M900 181L900 76L799 66Z" fill="#345495" stroke="#345495"></path><path d="M514 600L473 471L372 600Z" fill="#2a4d88" stroke="#2a4d88"></path><path d="M514 600L577 476L473 471Z" fill="#071d2e" stroke="#071d2e"></path><path d="M372 600L473 471L392 476Z" fill="#000d17" stroke="#000d17"></path><path d="M900 513L900 388L830 399Z" fill="#000d17" stroke="#000d17"></path><path d="M830 399L900 388L900 296Z" fill="#000d17" stroke="#000d17"></path><path d="M326 0L225 0L276 85Z" fill="#345495" stroke="#345495"></path><path d="M106 63L109 201L175 190Z" fill="#345495" stroke="#345495"></path><path d="M575 600L662 600L577 476Z" fill="#061622" stroke="#061622"></path><path d="M763 497L900 513L830 399Z" fill="#08233a" stroke="#08233a"></path><path d="M103 339L169 361L198 307Z" fill="#345495" stroke="#345495"></path><path d="M198 307L169 361L304 435Z" fill="#193f6d" stroke="#193f6d"></path><path d="M900 76L900 0L799 66Z" fill="#071d2e" stroke="#071d2e"></path><path d="M316 600L372 600L307 470Z" fill="#123860" stroke="#123860"></path><path d="M307 470L372 600L392 476Z" fill="#000d17" stroke="#000d17"></path><path d="M106 63L175 190L230 64Z" fill="#08233a" stroke="#08233a"></path><path d="M175 190L109 201L198 307Z" fill="#061622" stroke="#061622"></path><path d="M207 535L316 600L307 470Z" fill="#071d2e" stroke="#071d2e"></path><path d="M662 600L789 600L727 489Z" fill="#061622" stroke="#061622"></path><path d="M789 600L900 513L763 497Z" fill="#193f6d" stroke="#193f6d"></path><path d="M109 201L103 339L198 307Z" fill="#000d17" stroke="#000d17"></path><path d="M169 361L207 535L304 435Z" fill="#123860" stroke="#123860"></path><path d="M93 461L207 535L169 361Z" fill="#0d3153" stroke="#0d3153"></path><path d="M225 0L106 63L230 64Z" fill="#193f6d" stroke="#193f6d"></path><path d="M0 384L82 395L103 339Z" fill="#193f6d" stroke="#193f6d"></path><path d="M0 260L103 339L109 201Z" fill="#123860" stroke="#123860"></path><path d="M103 339L82 395L169 361Z" fill="#061622" stroke="#061622"></path><path d="M789 600L900 600L900 513Z" fill="#0d3153" stroke="#0d3153"></path><path d="M82 395L93 461L169 361Z" fill="#123860" stroke="#123860"></path><path d="M225 0L63 0L106 63Z" fill="#345495" stroke="#345495"></path><path d="M0 121L0 235L109 201Z" fill="#123860" stroke="#123860"></path><path d="M136 600L168 600L207 535Z" fill="#08233a" stroke="#08233a"></path><path d="M207 535L168 600L316 600Z" fill="#000d17" stroke="#000d17"></path><path d="M82 395L0 384L93 461Z" fill="#092a46" stroke="#092a46"></path><path d="M0 121L109 201L106 63Z" fill="#000d17" stroke="#000d17"></path><path d="M0 235L0 260L109 201Z" fill="#071d2e" stroke="#071d2e"></path><path d="M63 0L0 121L106 63Z" fill="#08233a" stroke="#08233a"></path><path d="M93 461L136 600L207 535Z" fill="#08233a" stroke="#08233a"></path><path d="M0 516L136 600L93 461Z" fill="#193f6d" stroke="#193f6d"></path><path d="M0 260L0 384L103 339Z" fill="#21467a" stroke="#21467a"></path><path d="M63 0L0 0L0 121Z" fill="#061622" stroke="#061622"></path><path d="M0 384L0 516L93 461Z" fill="#123860" stroke="#123860"></path><path d="M0 516L0 600L136 600Z" fill="#092a46" stroke="#092a46"></path></g></svg>